{
    "asset" : {
        "generator" : "Khronos glTF Blender I/O v0.9.36",
        "version" : "2.0"
    },
    "scene" : 0,
    "scenes" : [
        {
            "name" : "Scene",
            "nodes" : [
                1
            ]
        }
    ],
    "nodes" : [
        {
            "mesh" : 0,
            "name" : "Circle",
            "rotation" : [
                0.0022397986613214016,
                -0.043174177408218384,
                -0.0032929624430835247,
                0.9990596175193787
            ],
            "scale" : [
                16.150131225585938,
                16.150131225585938,
                16.15011215209961
            ],
            "translation" : [
                -2.846114512067288e-06,
                0,
                3.0517578125e-05
            ]
        },
        {
            "children" : [
                0
            ],
            "mesh" : 1,
            "name" : "Saturn",
            "rotation" : [
                0.0009621570352464914,
                2.781622924885596e-06,
                0.002891014562919736,
                0.9999953508377075
            ],
            "scale" : [
                0.5,
                0.5,
                0.5000005960464478
            ],
            "translation" : [
                0,
                0,
                -4.3280181884765625
            ]
        }
    ],
    "animations" : [
        {
            "channels" : [
                {
                    "sampler" : 0,
                    "target" : {
                        "node" : 1,
                        "path" : "rotation"
                    }
                }
            ],
            "name" : "SaturnAction.002",
            "samplers" : [
                {
                    "input" : 8,
                    "interpolation" : "LINEAR",
                    "output" : 9
                }
            ]
        }
    ],
    "meshes" : [
        {
            "name" : "Circle",
            "primitives" : [
                {
                    "attributes" : {
                        "POSITION" : 0,
                        "NORMAL" : 1,
                        "TEXCOORD_0" : 2
                    },
                    "indices" : 3
                }
            ]
        },
        {
            "name" : "Sphere.006",
            "primitives" : [
                {
                    "attributes" : {
                        "POSITION" : 4,
                        "NORMAL" : 5,
                        "TEXCOORD_0" : 6
                    },
                    "indices" : 7
                }
            ]
        }
    ],
    "accessors" : [
        {
            "bufferView" : 0,
            "componentType" : 5126,
            "count" : 176,
            "max" : [
                -0.9302301406860352,
                -0.06395279616117477,
                -21.477458953857422
            ],
            "min" : [
                -2.930230140686035,
                -0.06395279616117477,
                -23.477458953857422
            ],
            "type" : "VEC3"
        },
        {
            "bufferView" : 1,
            "componentType" : 5126,
            "count" : 176,
            "type" : "VEC3"
        },
        {
            "bufferView" : 2,
            "componentType" : 5126,
            "count" : 176,
            "type" : "VEC2"
        },
        {
            "bufferView" : 3,
            "componentType" : 5123,
            "count" : 480,
            "type" : "SCALAR"
        },
        {
            "bufferView" : 4,
            "componentType" : 5126,
            "count" : 559,
            "max" : [
                8.350001335144043,
                8.350000381469727,
                -355.9834899902344
            ],
            "min" : [
                -8.34999942779541,
                -8.350000381469727,
                -372.6834716796875
            ],
            "type" : "VEC3"
        },
        {
            "bufferView" : 5,
            "componentType" : 5126,
            "count" : 559,
            "type" : "VEC3"
        },
        {
            "bufferView" : 6,
            "componentType" : 5126,
            "count" : 559,
            "type" : "VEC2"
        },
        {
            "bufferView" : 7,
            "componentType" : 5123,
            "count" : 2880,
            "type" : "SCALAR"
        },
        {
            "bufferView" : 8,
            "componentType" : 5126,
            "count" : 25001,
            "max" : [
                1041.6666666666667
            ],
            "min" : [
                0
            ],
            "type" : "SCALAR"
        },
        {
            "bufferView" : 9,
            "componentType" : 5126,
            "count" : 25001,
            "type" : "VEC4"
        }
    ],
    "bufferViews" : [
        {
            "buffer" : 0,
            "byteLength" : 2112,
            "byteOffset" : 0
        },
        {
            "buffer" : 0,
            "byteLength" : 2112,
            "byteOffset" : 2112
        },
        {
            "buffer" : 0,
            "byteLength" : 1408,
            "byteOffset" : 4224
        },
        {
            "buffer" : 0,
            "byteLength" : 960,
            "byteOffset" : 5632
        },
        {
            "buffer" : 0,
            "byteLength" : 6708,
            "byteOffset" : 6592
        },
        {
            "buffer" : 0,
            "byteLength" : 6708,
            "byteOffset" : 13300
        },
        {
            "buffer" : 0,
            "byteLength" : 4472,
            "byteOffset" : 20008
        },
        {
            "buffer" : 0,
            "byteLength" : 5760,
            "byteOffset" : 24480
        },
        {
            "buffer" : 0,
            "byteLength" : 100004,
            "byteOffset" : 30240
        },
        {
            "buffer" : 0,
            "byteLength" : 400016,
            "byteOffset" : 130244
        }
    ],
    "buffers" : [
        {
            "byteLength" : 530260,
            "uri" : "data:application/octet-stream;base64,"
        }
    ]
}
